<?xml version="1.0" standalone="no"?>
<!DOCTYPE svg PUBLIC "-//W3C//DTD SVG 20010904//EN"
 "http://www.w3.org/TR/2001/REC-SVG-20010904/DTD/svg10.dtd">
<svg version="1.0" xmlns="http://www.w3.org/2000/svg"
 width="684.000000pt" height="684.000000pt" viewBox="0 0 684.000000 684.000000"
 preserveAspectRatio="xMidYMid meet">
<metadata>
Created by potrace 1.14, written by Peter Selinger 2001-2017
</metadata>
<g transform="translate(0.000000,684.000000) scale(0.100000,-0.100000)"
fill="#000000" stroke="none">
<path d="M1386 5718 c3 -5 10 -6 15 -3 13 9 11 12 -6 12 -8 0 -12 -4 -9 -9z"/>
<path d="M1176 5562 c-3 -5 1 -9 9 -9 8 0 12 4 9 9 -3 4 -7 8 -9 8 -2 0 -6 -4
-9 -8z"/>
<path d="M1305 5360 c-3 -6 1 -7 9 -4 18 7 21 14 7 14 -6 0 -13 -4 -16 -10z"/>
<path d="M1635 5360 c-3 -5 -1 -10 4 -10 6 0 11 5 11 10 0 6 -2 10 -4 10 -3 0
-8 -4 -11 -10z"/>
<path d="M1593 5305 c0 -8 4 -12 9 -9 5 3 6 10 3 15 -9 13 -12 11 -12 -6z"/>
<path d="M1635 5221 c-3 -5 -2 -12 3 -15 5 -3 9 1 9 9 0 17 -3 19 -12 6z"/>
<path d="M1355 5189 c-4 -6 -5 -12 -2 -15 2 -3 7 2 10 11 7 17 1 20 -8 4z"/>
<path d="M1715 5189 c-4 -6 -5 -12 -2 -15 2 -3 7 2 10 11 7 17 1 20 -8 4z"/>
<path d="M1690 5046 c0 -2 7 -7 16 -10 8 -3 12 -2 9 4 -6 10 -25 14 -25 6z"/>
<path d="M1996 4947 c3 -10 9 -15 12 -12 3 3 0 11 -7 18 -10 9 -11 8 -5 -6z"/>
<path d="M1855 4929 c-4 -6 -5 -12 -2 -15 2 -3 7 2 10 11 7 17 1 20 -8 4z"/>
<path d="M1709 4843 c-13 -16 -12 -17 4 -4 9 7 17 15 17 17 0 8 -8 3 -21 -13z"/>
<path d="M1989 4843 c-13 -16 -12 -17 4 -4 9 7 17 15 17 17 0 8 -8 3 -21 -13z"/>
<path d="M2019 4793 c-13 -16 -12 -17 4 -4 16 13 21 21 13 21 -2 0 -10 -8 -17
-17z"/>
<path d="M1679 4553 c-13 -16 -12 -17 4 -4 9 7 17 15 17 17 0 8 -8 3 -21 -13z"/>
<path d="M1799 4473 c-13 -16 -12 -17 4 -4 16 13 21 21 13 21 -2 0 -10 -8 -17
-17z"/>
<path d="M2350 4480 c0 -5 5 -10 11 -10 5 0 7 5 4 10 -3 6 -8 10 -11 10 -2 0
-4 -4 -4 -10z"/>
<path d="M4510 4480 c0 -5 5 -10 11 -10 5 0 7 5 4 10 -3 6 -8 10 -11 10 -2 0
-4 -4 -4 -10z"/>
<path d="M1916 4462 c-3 -5 1 -9 9 -9 8 0 12 4 9 9 -3 4 -7 8 -9 8 -2 0 -6 -4
-9 -8z"/>
<path d="M4475 4449 c-4 -6 -5 -12 -2 -15 2 -3 7 2 10 11 7 17 1 20 -8 4z"/>
<path d="M2436 4413 c-6 -14 -5 -15 5 -6 7 7 10 15 7 18 -3 3 -9 -2 -12 -12z"/>
<path d="M2470 4279 c0 -5 5 -7 10 -4 6 3 10 8 10 11 0 2 -4 4 -10 4 -5 0 -10
-5 -10 -11z"/>
<path d="M2243 4222 c-15 -15 -29 -38 -31 -52 -1 -13 -9 -31 -16 -39 -8 -9
-24 -50 -35 -91 -11 -41 -29 -104 -39 -140 -10 -36 -19 -68 -19 -73 -1 -4 -7
-32 -13 -62 -6 -30 -8 -59 -5 -65 4 -6 1 -17 -5 -25 -7 -8 -10 -21 -7 -29 3
-8 2 -16 -3 -18 -4 -2 -11 -25 -14 -53 l-6 -50 13 50 c10 40 14 46 19 28 3
-12 2 -23 -2 -25 -5 -2 -11 -30 -15 -62 -6 -49 -5 -57 6 -51 8 5 6 0 -3 -12
-21 -23 -22 -30 -5 -36 6 -2 1 -2 -13 0 -19 3 -22 2 -13 -8 9 -9 8 -15 -2 -26
-9 -8 -13 -27 -11 -46 2 -18 0 -37 -5 -43 -5 -6 -10 -30 -11 -53 -1 -23 -5
-44 -10 -47 -4 -3 -8 -12 -8 -19 0 -8 -10 -37 -22 -65 -21 -49 -22 -50 -59
-44 -51 8 -105 -11 -163 -60 -28 -23 -53 -42 -58 -42 -4 -1 -9 -3 -10 -4 -7
-7 -68 -5 -68 2 0 4 -12 3 -26 -2 -14 -6 -23 -6 -20 -2 2 4 7 37 10 72 3 36 8
74 10 85 3 18 9 57 21 135 3 14 11 68 20 120 9 52 18 113 21 135 3 22 11 72
19 110 18 85 21 145 12 206 -7 40 -14 51 -50 75 -23 16 -45 33 -48 37 -14 19
-60 -6 -79 -44 -11 -20 -24 -40 -30 -44 -5 -3 -20 -27 -31 -53 -12 -26 -36
-69 -53 -97 -35 -54 -139 -269 -200 -410 -10 -22 -25 -51 -34 -65 -9 -14 -18
-33 -19 -43 -2 -11 -10 -28 -18 -40 -8 -12 -15 -29 -15 -39 0 -10 -4 -18 -10
-18 -5 0 -10 -8 -10 -17 0 -23 -64 -177 -68 -164 -2 6 2 28 9 48 20 58 21 69
4 52 -8 -8 -17 -30 -20 -49 -7 -40 -21 -58 -50 -63 -11 -2 -27 -7 -35 -10 -8
-3 -33 -9 -55 -12 -129 -17 -184 -29 -188 -39 -8 -19 21 -76 37 -76 8 0 20 -9
26 -20 8 -15 17 -19 31 -15 10 4 31 8 46 11 30 5 45 9 81 19 20 6 22 5 13 -12
-12 -19 -80 -215 -86 -248 -3 -11 -11 -43 -20 -70 -19 -65 -19 -65 11 -65 19
0 25 -4 21 -14 -10 -26 49 -31 75 -7 12 12 30 21 39 21 10 0 21 9 24 20 4 11
11 17 17 14 6 -4 8 -2 4 4 -3 6 -1 32 5 59 17 73 91 287 101 294 6 3 9 9 9 13
-3 19 1 25 18 31 26 8 59 15 101 20 70 10 106 15 133 21 l28 6 -2 -59 c-1 -32
-7 -61 -13 -65 -8 -6 -8 -8 0 -8 7 0 10 -12 7 -27 -9 -63 -8 -423 2 -488 14
-88 46 -158 91 -197 100 -88 153 -108 187 -70 18 20 47 104 47 139 0 21 -21
26 -37 8 -4 -4 -2 -5 5 -1 21 12 13 -12 -14 -41 -14 -15 -23 -22 -19 -15 3 7
9 24 11 39 3 15 9 32 14 39 6 7 4 18 -5 30 -9 11 -13 13 -10 4 7 -21 -80 -118
-93 -105 -13 13 -41 98 -47 141 -3 25 -1 33 8 27 9 -5 9 -4 0 8 -9 11 -11 70
-8 219 2 113 7 223 10 245 3 22 10 83 16 135 7 66 15 99 27 107 13 10 17 10
24 0 6 -9 8 -8 8 3 0 12 2 12 9 2 4 -7 17 -14 28 -15 19 -1 20 -3 7 -39 -7
-20 -18 -47 -24 -58 -48 -89 -8 -195 94 -255 35 -20 48 -23 73 -16 37 11 81
56 125 128 31 50 68 82 54 47 -3 -8 -1 -25 6 -37 11 -21 10 -21 -7 -7 -12 9
-16 10 -11 2 4 -7 9 -68 10 -135 2 -67 8 -135 15 -151 6 -16 9 -36 7 -43 -3
-8 -2 -11 3 -8 6 3 17 -7 26 -22 17 -29 93 -83 115 -83 9 0 11 10 6 31 -3 17
-6 35 -6 40 0 5 -6 6 -14 3 -20 -8 -26 7 -37 83 -7 47 -6 70 2 79 7 9 7 14 1
14 -11 0 -9 51 3 70 5 8 4 11 -2 7 -6 -4 -8 4 -5 20 4 20 2 24 -9 18 -12 -7
-12 -6 -1 7 7 9 12 22 11 30 -3 28 1 39 14 32 9 -6 9 -5 1 7 -7 8 -10 31 -8
52 2 24 -1 37 -9 37 -8 0 -8 3 1 9 18 11 15 24 -10 37 -14 7 -17 14 -9 18 6 4
11 2 11 -3 0 -6 4 -11 8 -11 5 0 8 10 7 23 -1 12 1 32 6 43 4 13 3 26 -4 33
-8 8 -8 11 2 11 9 0 11 9 6 30 -5 22 -3 30 7 30 9 0 10 2 1 8 -11 7 3 63 49
192 76 212 110 306 112 315 16 59 20 71 25 80 3 6 6 15 7 20 3 34 18 75 26 75
6 0 8 7 5 15 -4 8 -2 17 3 20 13 8 13 55 1 55 -5 0 -13 -9 -16 -21 -4 -11 -9
-18 -12 -16 -9 9 17 47 32 47 8 0 15 3 16 8 0 4 1 27 2 52 1 27 8 50 17 57 13
11 13 12 0 13 -13 0 -13 2 -1 9 9 6 16 31 18 63 2 29 6 60 9 68 11 25 14 91 4
85 -4 -3 -3 8 3 24 13 36 3 51 -62 93 -56 35 -63 35 -98 0z m151 -178 c3 -8 2
-12 -4 -9 -6 3 -10 10 -10 16 0 14 7 11 14 -7z m-223 -61 c-12 -20 -14 -14 -5
12 4 9 9 14 11 11 3 -2 0 -13 -6 -23z m206 -15 c-3 -7 -5 -2 -5 12 0 14 2 19
5 13 2 -7 2 -19 0 -25z m-230 -82 c-1 -24 -5 -42 -9 -39 -5 2 -8 -4 -9 -14 -1
-30 -6 -50 -19 -70 -10 -16 -11 -15 -6 7 11 48 40 160 43 160 1 0 1 -20 0 -44z
m-656 -83 c-16 -28 -51 -69 -51 -60 0 10 32 60 45 69 15 12 17 10 6 -9z m21
-65 c-12 -18 -37 -66 -57 -105 -19 -40 -40 -73 -45 -73 -6 0 -10 -6 -10 -13 0
-7 -9 -29 -20 -50 -11 -20 -18 -37 -15 -37 3 0 -3 -12 -12 -27 -10 -15 -17
-28 -16 -30 4 -5 -38 -97 -46 -103 -4 -3 -12 -21 -19 -40 l-11 -35 6 40 c5 40
22 79 105 247 46 94 151 269 157 263 2 -2 -6 -19 -17 -37z m591 -23 c-7 -21
-13 -19 -13 6 0 11 4 18 10 14 5 -3 7 -12 3 -20z m-674 -14 c-6 -17 -17 -35
-25 -42 -8 -6 -14 -20 -14 -30 0 -10 -10 -25 -22 -33 -12 -9 -19 -16 -15 -16
4 0 -2 -18 -13 -40 -11 -21 -20 -46 -20 -55 0 -8 -4 -15 -10 -15 -5 0 -10 -7
-10 -15 0 -26 -60 -143 -77 -149 -12 -5 -13 -4 -5 7 7 8 9 17 6 20 -3 3 5 21
18 39 23 32 45 81 53 123 3 11 9 21 15 23 5 2 10 10 10 17 0 8 7 21 16 29 8 9
12 16 9 16 -7 0 20 49 63 113 30 45 34 46 21 8z m874 -31 c-3 -11 -10 -23 -16
-27 -5 -3 -8 -2 -5 3 3 5 8 17 11 27 9 24 16 22 10 -3z m-788 -27 c-3 -21 -7
-49 -10 -63 -3 -14 -19 -113 -35 -220 -16 -107 -31 -208 -34 -225 -3 -16 -10
-66 -16 -109 -5 -44 -11 -81 -13 -82 -1 -1 -31 -5 -67 -9 -36 -3 -89 -8 -117
-11 -43 -4 -53 -2 -53 10 0 8 5 16 11 18 5 2 13 22 16 46 3 23 9 39 14 36 8
-5 13 10 10 29 0 4 10 29 23 56 13 27 26 61 30 76 4 14 11 23 16 20 5 -3 7 0
4 8 -3 8 13 51 35 96 23 44 41 87 41 95 0 8 4 16 8 18 5 2 33 53 63 113 48 97
68 133 76 135 2 0 1 -17 -2 -37z m729 -152 c-20 -61 -41 -108 -46 -105 -5 3
-4 12 3 20 6 8 9 14 5 14 -4 0 0 13 8 28 8 15 24 58 36 96 12 37 24 65 27 63
2 -3 -13 -55 -33 -116z m-55 -160 c-6 -18 -13 -30 -15 -28 -2 2 1 18 7 36 6
18 13 30 15 28 2 -2 -1 -18 -7 -36z m-699 -46 c-6 -30 -8 -33 -9 -13 -1 25 8
62 14 56 2 -2 -1 -21 -5 -43z m-260 -5 c0 -5 -5 -10 -11 -10 -5 0 -7 5 -4 10
3 6 8 10 11 10 2 0 4 -4 4 -10z m253 -70 c-3 -11 -9 -20 -15 -20 -5 0 -4 9 2
20 6 11 12 20 14 20 2 0 2 -9 -1 -20z m-16 -67 c-3 -10 -5 -4 -5 12 0 17 2 24
5 18 2 -7 2 -21 0 -30z m-320 5 c-3 -8 -6 -5 -6 6 -1 11 2 17 5 13 3 -3 4 -12
1 -19z m308 -110 c-4 -40 -10 -77 -15 -82 -7 -7 -5 31 5 89 2 11 4 30 4 43 1
12 4 22 7 22 3 0 2 -33 -1 -72z m444 -120 c-7 -12 -14 -29 -15 -37 -2 -8 -9
-18 -16 -22 -7 -5 -9 -9 -5 -9 12 0 -105 -200 -118 -200 -6 0 5 57 22 105 18
53 74 135 92 135 8 0 11 3 8 7 -4 3 3 17 15 30 26 28 34 23 17 -9z m-504 3 c8
-14 -3 -18 -70 -25 -33 -3 -72 -9 -87 -11 -55 -10 -87 -12 -83 -5 5 8 48 19
100 26 17 2 50 8 75 13 25 5 48 9 52 10 4 1 9 -3 13 -8z m695 -1 c0 -5 -2 -10
-4 -10 -3 0 -8 5 -11 10 -3 6 -1 10 4 10 6 0 11 -4 11 -10z m-10 -50 c-6 -4
-10 -13 -8 -20 2 -7 -2 -14 -8 -17 -9 -3 -10 4 -5 49 1 4 8 5 17 1 11 -4 12
-8 4 -13z m-653 -12 c-3 -8 -6 -5 -6 6 -1 11 2 17 5 13 3 -3 4 -12 1 -19z
m-37 3 c0 -11 -52 -21 -134 -27 -34 -2 -72 -6 -86 -9 -22 -4 -23 -3 -5 5 15 8
121 26 218 39 4 1 7 -3 7 -8z m27 -118 c-2 -16 -4 -3 -4 27 0 30 2 43 4 28 2
-16 2 -40 0 -55z m603 23 c0 -2 -7 -9 -15 -16 -13 -11 -14 -10 -9 4 5 14 24
23 24 12z m-43 -31 c0 -8 -4 -12 -9 -9 -5 3 -6 10 -3 15 9 13 12 11 12 -6z
m86 -5 c3 -11 1 -20 -4 -20 -5 0 -9 9 -9 20 0 11 2 20 4 20 2 0 6 -9 9 -20z
m-426 -42 c-3 -7 -5 -2 -5 12 0 14 2 19 5 13 2 -7 2 -19 0 -25z m85 14 c-7 -2
-9 -9 -6 -14 4 -7 2 -8 -4 -4 -6 4 -9 13 -6 21 4 8 11 12 17 8 8 -5 7 -8 -1
-11z m-309 -17 c-7 -21 -13 -19 -13 6 0 11 4 18 10 14 5 -3 7 -12 3 -20z m-10
-112 c-8 -104 -14 -107 -12 -5 1 45 5 82 10 82 4 0 5 -35 2 -77z m651 51 c3
-8 2 -12 -4 -9 -6 3 -10 10 -10 16 0 14 7 11 14 -7z m-7 -146 c-3 -7 -5 -2 -5
12 0 14 2 19 5 13 2 -7 2 -19 0 -25z m-650 -30 c-3 -7 -5 -2 -5 12 0 14 2 19
5 13 2 -7 2 -19 0 -25z m0 -55 c-3 -10 -5 -4 -5 12 0 17 2 24 5 18 2 -7 2 -21
0 -30z"/>
<path d="M4115 4071 c-3 -5 -2 -12 3 -15 5 -3 9 1 9 9 0 17 -3 19 -12 6z"/>
<path d="M4473 4005 c0 -8 4 -12 9 -9 5 3 6 10 3 15 -9 13 -12 11 -12 -6z"/>
<path d="M2676 3953 c-6 -14 -5 -15 5 -6 7 7 10 15 7 18 -3 3 -9 -2 -12 -12z"/>
<path d="M3860 3800 c-9 -6 -10 -10 -3 -10 6 0 15 5 18 10 8 12 4 12 -15 0z"/>
<path d="M4069 3789 c-17 -32 10 -46 34 -17 14 17 15 23 5 29 -20 13 -26 11
-39 -12z"/>
<path d="M3005 3760 c-3 -6 1 -7 9 -4 18 7 21 14 7 14 -6 0 -13 -4 -16 -10z"/>
<path d="M2813 3753 c6 -9 -6 -12 -45 -10 l-53 2 0 -63 c0 -34 -2 -62 -5 -62
-3 0 -4 -20 -2 -45 l4 -44 39 3 c24 3 37 0 33 -6 -4 -6 0 -7 12 -1 29 13 59 9
56 -7 -2 -8 0 -11 4 -7 5 4 9 19 10 32 1 24 -2 25 -58 25 -54 0 -58 1 -58 24
0 21 5 23 38 23 44 -1 62 8 62 29 0 10 -13 14 -50 14 -42 0 -50 3 -50 19 0 10
7 22 16 25 22 9 26 8 18 -6 -5 -7 -3 -8 6 -3 7 4 27 9 44 10 17 2 32 3 34 4 1
0 -2 10 -8 22 -7 11 -14 18 -17 15 -4 -3 -13 0 -21 7 -12 9 -14 9 -9 0z"/>
<path d="M3114 3752 c4 -7 3 -12 -2 -12 -6 0 -8 -9 -5 -20 3 -11 9 -17 14 -14
5 3 9 1 9 -4 0 -5 11 -7 23 -5 17 3 24 0 24 -11 0 -9 -4 -16 -8 -16 -5 0 -6
-7 -2 -15 3 -9 6 -39 7 -68 1 -45 4 -52 21 -52 16 0 19 7 20 51 1 28 5 56 9
62 4 7 3 12 -2 12 -5 0 -7 11 -5 24 4 18 10 22 30 20 23 -2 43 19 29 33 -3 3
-36 6 -73 7 -38 1 -74 5 -82 10 -10 6 -12 6 -7 -2z"/>
<path d="M3834 3751 c5 -8 3 -12 -5 -10 -34 4 -40 -1 -29 -21 6 -11 15 -18 21
-15 5 4 9 1 9 -6 0 -8 4 -8 15 1 18 15 17 21 20 -75 3 -100 2 -94 23 -91 14 2
18 17 22 87 5 83 5 84 32 83 18 -1 28 5 31 17 5 20 5 20 -83 23 -19 1 -41 5
-49 10 -10 6 -12 6 -7 -3z"/>
<path d="M2562 3739 c-31 -12 -50 -32 -66 -71 -12 -28 -12 -38 1 -70 15 -39
63 -69 98 -64 11 2 26 -2 34 -8 11 -8 13 -8 8 0 -3 6 5 16 18 22 14 7 25 16
25 22 0 17 -31 24 -51 12 -26 -16 -37 -15 -70 9 -19 13 -29 29 -29 45 0 14 4
22 10 19 5 -3 7 0 4 8 -5 15 9 30 39 40 13 5 16 3 11 -6 -5 -8 -2 -7 9 2 9 7
17 9 17 3 0 -15 38 -21 50 -7 23 28 -59 62 -108 44z"/>
<path d="M2907 3743 c-3 -5 -4 -29 -4 -54 0 -26 -3 -51 -7 -58 -4 -6 -3 -11 2
-11 6 0 7 -13 2 -33 -5 -23 -3 -37 7 -46 24 -22 38 3 35 65 -2 37 1 55 9 52 6
-2 9 -6 7 -8 -2 -3 12 -20 29 -39 18 -18 30 -37 28 -41 -3 -4 2 -11 11 -14 8
-3 13 -10 10 -15 -5 -7 17 -8 45 -2 11 2 16 72 7 77 -5 3 -4 12 3 20 6 8 8 14
3 14 -5 0 -9 20 -8 45 1 41 -1 45 -23 45 -13 0 -22 -4 -18 -9 3 -5 1 -12 -5
-16 -6 -4 -7 -12 -3 -18 12 -20 12 -37 0 -37 -8 0 -8 -3 -2 -8 9 -6 17 -42 10
-42 -1 0 -22 26 -45 58 -56 75 -81 95 -93 75z"/>
<path d="M3343 3742 l-41 -3 0 -62 c0 -34 -1 -66 -2 -72 -5 -21 2 -60 13 -73
14 -18 31 1 32 36 0 21 5 27 22 28 27 1 35 -4 52 -37 8 -16 20 -26 30 -24 9 2
20 4 24 4 5 1 -1 15 -13 31 l-21 30 20 26 c23 30 22 66 -4 94 -18 20 -50 26
-112 22z m84 -58 c6 -11 9 -25 5 -31 -9 -14 -81 -28 -83 -16 -9 65 -7 69 29
68 23 -1 40 -9 49 -21z"/>
<path d="M3999 3735 c0 -5 -1 -53 -2 -106 l-2 -96 78 1 c66 1 77 3 77 18 0 15
-9 18 -53 18 -49 0 -53 2 -55 25 -1 16 3 25 13 25 8 0 15 -6 15 -12 0 -9 3 -9
9 1 5 8 16 11 24 8 18 -7 42 17 33 32 -3 5 0 11 6 14 7 2 -13 2 -44 -1 -54 -4
-58 -3 -58 17 0 22 2 23 65 25 29 1 41 6 43 19 3 13 -4 17 -32 18 -20 1 -54 2
-76 3 -22 0 -40 -3 -41 -9z"/>
<path d="M4248 3742 c-16 -2 -28 -8 -28 -13 0 -5 -7 -9 -16 -9 -8 0 -13 -4
-10 -9 3 -5 -1 -14 -9 -21 -19 -16 -19 -63 0 -100 26 -51 83 -69 140 -46 40
17 51 53 13 41 -61 -19 -77 -17 -102 9 -13 15 -23 32 -22 39 11 61 43 81 98
62 32 -10 38 -10 43 3 3 8 2 19 -3 24 -13 13 -71 24 -104 20z"/>
<path d="M3531 3709 c-23 -22 -31 -40 -31 -65 0 -36 33 -108 44 -97 3 3 6 2 6
-3 0 -5 25 -10 55 -10 30 0 55 4 55 10 0 5 3 7 6 4 7 -8 38 22 49 48 4 10 7
30 6 44 -1 14 -3 35 -4 47 -1 11 -5 19 -8 17 -4 -2 -18 5 -32 16 -17 13 -40
20 -70 20 -37 0 -51 -5 -76 -31z m137 -44 c22 -47 -18 -100 -68 -90 -51 10
-73 53 -49 96 23 44 96 40 117 -6z"/>
<path d="M4395 3638 c0 -85 3 -103 15 -103 11 0 16 15 18 63 2 34 6 62 10 62
4 0 25 -25 47 -56 40 -55 71 -81 83 -69 4 3 7 51 7 106 0 88 -1 99 -17 99 -18
0 -22 -18 -19 -100 l2 -35 -31 35 c-16 19 -40 50 -52 67 -13 19 -32 33 -43 33
-20 0 -21 -6 -20 -102z"/>
<path d="M4624 3641 c1 -102 7 -124 29 -102 7 7 12 46 12 106 0 90 -1 95 -21
95 -20 0 -21 -5 -20 -99z"/>
<path d="M4741 3724 c-63 -44 -55 -146 14 -181 49 -25 136 4 122 42 -6 14 -9
14 -32 -1 -64 -42 -137 38 -91 99 16 21 62 25 94 8 19 -10 23 -9 29 5 15 40
-88 61 -136 28z"/>
<path d="M4937 3714 c-33 -32 -41 -57 -33 -98 9 -50 47 -80 101 -80 78 0 115
36 115 110 0 56 -44 94 -108 94 -40 0 -54 -5 -75 -26z m128 -37 c21 -30 18
-63 -7 -87 -28 -26 -58 -26 -92 1 -43 34 -31 87 26 108 30 11 55 3 73 -22z"/>
<path d="M3770 3686 c0 -2 7 -7 16 -10 8 -3 12 -2 9 4 -6 10 -25 14 -25 6z"/>
<path d="M5352 3582 c-33 -104 -27 -181 14 -165 8 3 14 -1 14 -10 0 -9 4 -18
8 -21 17 -11 34 14 62 93 31 88 28 124 -11 136 -9 3 -20 12 -23 20 -3 8 -14
15 -24 15 -14 0 -23 -17 -40 -68z"/>
<path d="M2040 3498 c0 -13 -2 -32 -4 -43 -2 -11 -1 -14 1 -7 3 7 8 10 12 8 4
-3 5 11 3 30 -5 38 -12 46 -12 12z"/>
<path d="M3596 3507 c3 -10 9 -15 12 -12 3 3 0 11 -7 18 -10 9 -11 8 -5 -6z"/>
<path d="M2995 3394 c-66 -34 -79 -60 -46 -93 11 -11 16 -23 13 -27 -4 -4 -1
-4 7 1 7 4 16 3 20 -3 21 -34 75 1 86 56 2 12 7 27 11 34 5 8 -2 9 -24 5 -27
-6 -31 -3 -34 18 -3 24 -4 25 -33 9z"/>
<path d="M3416 3322 c-3 -5 1 -9 9 -9 8 0 12 4 9 9 -3 4 -7 8 -9 8 -2 0 -6 -4
-9 -8z"/>
<path d="M3567 3279 c7 -7 15 -10 18 -7 3 3 -2 9 -12 12 -14 6 -15 5 -6 -5z"/>
<path d="M3486 3198 c3 -5 10 -6 15 -3 13 9 11 12 -6 12 -8 0 -12 -4 -9 -9z"/>
<path d="M3266 3162 c-3 -5 1 -9 9 -9 8 0 12 4 9 9 -3 4 -7 8 -9 8 -2 0 -6 -4
-9 -8z"/>
<path d="M5660 3103 c-8 -4 -20 -12 -27 -19 -7 -7 -23 -21 -36 -31 -26 -20
-66 -127 -69 -183 -4 -75 27 -143 96 -209 36 -33 36 -34 19 -62 -10 -16 -23
-27 -30 -25 -7 3 -12 2 -12 -2 4 -22 -7 -32 -61 -61 -56 -30 -66 -30 -61 2 3
18 -18 5 -25 -15 -7 -22 -7 -22 -14 -3 -4 11 -6 28 -4 38 4 21 0 21 -19 2 -10
-10 -14 -26 -10 -47 5 -32 32 -88 43 -88 3 0 18 -11 33 -25 22 -21 36 -25 73
-24 61 4 158 61 199 118 41 58 39 96 -9 165 -21 31 -41 54 -45 52 -14 -9 -53
64 -53 98 0 72 67 158 155 197 35 16 34 31 -5 61 -30 23 -113 69 -120 67 -2 0
-10 -3 -18 -6z"/>
<path d="M3276 3087 c3 -10 9 -15 12 -12 3 3 0 11 -7 18 -10 9 -11 8 -5 -6z"/>
<path d="M4630 3071 c-45 -14 -89 -41 -138 -84 -26 -24 -65 -53 -85 -66 -41
-25 -50 -38 -14 -21 15 7 11 1 -12 -19 -18 -16 -54 -40 -80 -53 -25 -13 -50
-28 -56 -34 -13 -14 -94 -60 -122 -68 -21 -7 -21 -5 -20 94 l2 101 -39 35
c-21 19 -54 41 -72 50 -41 20 -46 17 -150 -80 l-72 -66 5 36 c3 19 1 43 -3 52
-4 9 -6 20 -6 24 1 5 -1 7 -6 6 -4 -1 -21 6 -39 15 -48 26 -71 23 -67 -9 1
-14 -8 -70 -22 -125 -13 -55 -24 -115 -24 -132 0 -36 35 -101 50 -92 6 3 10 2
10 -4 0 -16 35 -31 58 -24 12 3 37 27 56 54 50 69 78 99 87 93 4 -2 11 1 15 7
4 8 3 9 -4 5 -19 -11 -14 9 6 27 10 10 22 14 27 10 4 -5 5 -3 2 4 -7 12 51 78
61 69 3 -3 5 -31 4 -62 0 -56 18 -117 38 -129 6 -4 7 -11 4 -17 -4 -6 -3 -8 3
-5 5 3 25 -7 44 -23 19 -16 40 -29 47 -30 7 0 10 -5 6 -12 -5 -7 -3 -8 6 -3 7
4 31 9 52 11 41 3 87 27 153 79 62 49 62 49 81 10 9 -20 29 -42 44 -50 16 -8
30 -19 32 -24 6 -16 101 -38 138 -30 19 3 49 9 67 13 51 10 173 57 173 67 0 5
9 9 20 9 18 0 25 10 21 32 0 4 6 5 14 2 8 -4 15 -1 15 4 0 11 16 22 118 72 34
17 60 36 57 41 -7 11 43 32 56 23 5 -3 9 0 9 6 0 6 23 21 50 32 28 11 49 22
47 24 -5 5 -96 -29 -226 -86 -41 -18 -49 -25 -36 -30 14 -5 1 -14 -48 -33 -86
-35 -98 -33 -25 2 32 16 55 31 52 34 -3 3 13 15 35 27 23 11 40 24 37 28 -7
12 26 29 47 26 11 -1 16 1 12 4 -4 4 19 19 52 35 68 32 34 26 -52 -10 -176
-73 -280 -115 -289 -117 -6 -1 -21 -8 -33 -14 -13 -7 -23 -11 -23 -8 0 3 -15
-1 -32 -8 -18 -8 -54 -17 -81 -20 -26 -4 -46 -10 -43 -14 6 -11 -138 -10 -145
1 -7 9 21 67 32 67 3 0 14 -9 24 -20 37 -41 107 -16 210 75 49 43 50 45 50
100 0 54 -2 59 -40 91 -41 34 -72 41 -125 25z m-227 -211 c-5 -18 -15 -24 -36
-21 -4 1 -10 -6 -13 -14 -4 -8 -11 -15 -18 -15 -9 1 60 70 70 70 1 0 0 -9 -3
-20z m584 -31 c-9 -6 -15 -14 -12 -20 3 -5 0 -6 -8 -3 -8 3 -55 -9 -103 -26
-49 -17 -84 -27 -79 -21 10 10 189 77 210 79 6 1 2 -3 -8 -9z m-667 -23 c0 -2
-7 -7 -16 -10 -8 -3 -12 -2 -9 4 6 10 25 14 25 6z m427 -62 c-3 -3 -12 -4 -19
-1 -8 3 -5 6 6 6 11 1 17 -2 13 -5z m-39 -10 c-4 -3 -21 -7 -40 -10 -26 -3
-29 -2 -13 5 22 11 62 14 53 5z"/>
<path d="M3223 3062 c-22 -3 -136 -118 -166 -168 -53 -88 -95 -210 -76 -228 5
-6 9 -17 9 -26 0 -19 64 -73 97 -84 40 -13 112 29 189 110 l72 75 -5 -44 c-8
-65 14 -155 40 -169 12 -6 30 -20 39 -31 31 -35 47 -15 42 53 -3 34 -1 85 5
113 12 63 25 173 24 206 -1 26 -55 81 -79 81 -8 0 -14 4 -14 8 0 4 -21 21 -46
37 -25 16 -52 38 -60 49 -8 11 -14 17 -14 13 0 -4 -8 -4 -17 1 -10 4 -28 6
-40 4z m61 -179 c-60 -70 -132 -143 -141 -143 -8 0 29 54 62 91 33 36 125 119
133 119 2 0 -22 -30 -54 -67z m76 13 c0 -15 -14 -35 -21 -30 -5 3 -9 -2 -9
-11 0 -9 -4 -13 -10 -10 -5 3 -10 0 -10 -7 0 -8 -27 -40 -61 -73 -33 -33 -57
-52 -54 -43 4 9 13 19 21 22 8 3 14 12 14 21 0 8 5 15 10 15 6 0 10 5 10 12 0
6 -9 3 -20 -7 -11 -10 -20 -14 -20 -8 0 9 52 52 67 55 5 1 21 17 37 35 26 29
46 42 46 29z m-7 -98 c-6 -24 -66 -93 -95 -109 -14 -7 -16 -6 -12 5 3 8 12 17
20 20 9 3 12 10 9 16 -3 5 -1 10 4 10 6 0 11 6 11 14 0 12 53 66 65 66 2 0 1
-10 -2 -22z"/>
<path d="M2852 3010 c-23 -25 -142 -52 -192 -44 -19 3 -48 13 -65 22 -21 11
-57 16 -117 16 -76 1 -89 -2 -110 -21 -28 -27 -46 -29 -62 -7 -12 15 -86 38
-86 25 0 -3 -16 -79 -35 -169 -19 -89 -37 -177 -40 -195 -7 -47 -15 -90 -20
-97 -2 -3 8 -19 23 -35 15 -16 26 -33 25 -37 -2 -4 5 -4 14 -1 10 4 14 2 10
-4 -4 -6 1 -10 11 -9 10 0 16 -5 14 -14 -2 -8 12 0 30 19 21 21 34 46 35 65 1
17 7 40 13 51 5 11 27 63 49 117 43 107 52 123 112 185 51 54 79 61 138 38 60
-23 149 -45 184 -45 33 0 33 0 6 -81 -12 -35 -21 -74 -21 -86 0 -13 -6 -23
-12 -23 -7 0 -7 -3 -1 -8 6 -4 16 -25 24 -47 13 -36 41 -77 41 -59 0 4 9 -2
21 -15 30 -32 52 -24 55 19 0 19 2 45 3 58 0 13 5 21 9 18 5 -3 7 8 4 23 -2
16 3 44 11 62 8 19 20 48 26 64 6 17 16 44 22 60 7 17 14 48 16 71 4 37 1 43
-29 66 -49 37 -83 43 -106 18z m-455 -46 c-3 -3 -12 -4 -19 -1 -8 3 -5 6 6 6
11 1 17 -2 13 -5z m-17 -29 c0 -8 -6 -14 -12 -12 -7 1 -12 -4 -10 -10 2 -15
-4 -17 -13 -4 -3 5 2 17 11 25 19 20 24 20 24 1z m35 -42 c-1 -10 -8 -17 -14
-15 -10 2 -13 -5 -10 -24 0 -4 -3 -10 -9 -13 -5 -3 -14 -15 -20 -26 -10 -18
-11 -18 -12 -2 0 10 5 23 10 30 6 7 19 24 31 40 24 32 28 33 24 10z"/>
<path d="M3883 2988 c-13 -6 -23 -15 -23 -20 0 -10 36 7 45 22 7 12 7 12 -22
-2z"/>
<path d="M3805 2917 c-25 -29 -26 -40 -2 -18 15 14 27 26 27 28 0 7 -16 1 -25
-10z"/>
<path d="M2515 2640 c3 -5 8 -10 11 -10 2 0 4 5 4 10 0 6 -5 10 -11 10 -5 0
-7 -4 -4 -10z"/>
<path d="M2090 2626 c0 -2 7 -7 16 -10 8 -3 12 -2 9 4 -6 10 -25 14 -25 6z"/>
<path d="M2816 2533 c-6 -14 -5 -15 5 -6 7 7 10 15 7 18 -3 3 -9 -2 -12 -12z"/>
<path d="M2715 2500 c-3 -5 -1 -10 4 -10 6 0 11 5 11 10 0 6 -2 10 -4 10 -3 0
-8 -4 -11 -10z"/>
<path d="M2676 2447 c3 -10 9 -15 12 -12 3 3 0 11 -7 18 -10 9 -11 8 -5 -6z"/>
<path d="M4330 2326 c0 -2 7 -7 16 -10 8 -3 12 -2 9 4 -6 10 -25 14 -25 6z"/>
<path d="M1550 2101 c0 -6 4 -13 10 -16 6 -3 7 1 4 9 -7 18 -14 21 -14 7z"/>
<path d="M4645 1880 c-3 -6 1 -7 9 -4 18 7 21 14 7 14 -6 0 -13 -4 -16 -10z"/>
<path d="M1700 1846 c0 -2 8 -10 18 -17 15 -13 16 -12 3 4 -13 16 -21 21 -21
13z"/>
<path d="M4506 1298 c3 -5 10 -6 15 -3 13 9 11 12 -6 12 -8 0 -12 -4 -9 -9z"/>
<path d="M2313 1235 c0 -8 4 -12 9 -9 5 3 6 10 3 15 -9 13 -12 11 -12 -6z"/>
<path d="M2016 998 c3 -5 10 -6 15 -3 13 9 11 12 -6 12 -8 0 -12 -4 -9 -9z"/>
<path d="M1776 927 c3 -10 9 -15 12 -12 3 3 0 11 -7 18 -10 9 -11 8 -5 -6z"/>
</g>
</svg>
